<svg width="120" height="100" viewBox="0 0 120 100" fill="none" xmlns="http://www.w3.org/2000/svg">
  <circle cx="38" cy="38" r="14" fill="#7BAAF7"/>
  <circle cx="82" cy="24" r="14" fill="#2EC4A6"/>
  <path d="M24 80c0-18 12-32 28-32s28 14 28 32c0 4.418-3.582 8-8 8H32c-4.418 0-8-3.582-8-8z" fill="#2EC4A6"/>
  <path d="M66 80c0-18-12-32-28-32S10 62 10 80c0 4.418 3.582 8 8 8h40c4.418 0 8-3.582 8-8z" fill="#7BAAF7"/>
  <path d="M38 80c0-8 6-14 14-14s14 6 14 14c0 2.209-1.791 4-4 4H42c-2.209 0-4-1.791-4-4z" fill="#2056C7" fill-opacity=".7"/>
</svg> 